DataType=double
version=3
OpenSimVersion=4.5.2-2025-05-03-6a4c6ec41
endheader
time	q	/jointset/head_joint/q/speed
5.000000000000004	0.7239691530518585	0.2959824217635376
5.001000000000005	0.7242649357780453	0.2955821590045965
5.002000000000005	0.7245603402348206	0.2952258842829659
5.003000000000005	0.7248554083673366	0.2949095117039607
5.004000000000006	0.7251501782379012	0.2946293614852312
5.005000000000006	0.7254446844117926	0.2943821193603858
5.006000000000006	0.7257389583045074	0.2941648000421653
5.007000000000007	0.7260330284942991	0.2939747143392139
5.008000000000007	0.726326921003476	0.29380943956109
5.009000000000007	0.7266161846684613	0.284717039791734
5.010000000000008	0.726897922863039	0.2787585210855457
5.011000000000008	0.7271737172238409	0.2728293899155558
5.012000000000008	0.7274439447465868	0.2676248615279724
5.013000000000009	0.7277092067957983	0.2628984576234253
5.014000000000009	0.727969979582735	0.2586463503462322
5.015000000000009	0.7282267084345405	0.2548105994120483
5.01600000000001	0.7284797904439257	0.251352676383114
5.01700000000001	0.728729584397752	0.2482344981115736
5.01800000000001	0.7289764133278862	0.2454226378618499
5.019000000000011	0.7292205684029424	0.2428867959586476
5.020000000000011	0.7294623120319467	0.2405997529867983
5.021000000000011	0.7297018807573677	0.2385369953224789
5.022000000000012	0.7299394878339369	0.2366764611841919
5.023000000000012	0.7301753255558346	0.2349982913136344
5.024000000000012	0.7304095673496184	0.2334846097786047
5.025000000000013	0.7306423696582637	0.2321193253980694
5.026000000000013	0.7308738736367214	0.2308879533488404
5.027000000000013	0.7311042066779604	0.2297774545303672
5.028000000000014	0.731333483786416	0.228776091013164
5.029000000000014	0.7315618088141126	0.2278732959371909
5.030000000000014	0.7317892755731888	0.2270595564215319
5.031000000000015	0.7320159688371882	0.2263263081826654
5.032000000000015	0.7322419652422354	0.2256658406908684
5.033000000000015	0.7324673340981117	0.2250712118108479
5.034000000000016	0.732692138118239	0.2245361709782061
5.035000000000016	0.7329164340766807	0.2240550900581537
5.036000000000016	0.7331402733994589	0.2236229011182515
5.037000000000017	0.7333637026967547	0.2232350404237804
5.038000000000017	0.7335867642419051	0.2228873980334797
5.039000000000017	0.7338094964025148	0.2225762724356199
5.040000000000018	0.7340319340284724	0.2222983297203775
5.041000000000018	0.7342541088011808	0.2220505668348851
5.042000000000018	0.7344760495478786	0.2218302785126898
5.043000000000019	0.7346977825245459	0.221635027510182
5.044000000000019	0.7349193316705334	0.2214626178192972
5.045000000000019	0.7351407188377441	0.2213110705588672
5.04600000000002	0.7353619639969118	0.2211786022767548
5.04700000000002	0.7355830854232659	0.221063605421696
5.04800000000002	0.735804099863645	0.2209646307678793
5.049000000000021	0.7360250226869137	0.2208803715969909
5.050000000000021	0.7362458680193521	0.220809649461977
5.051000000000021	0.7364666488665208	0.2207514013743557
5.052000000000022	0.736687377222954	0.2207046682727223
5.053000000000022	0.7369080641708975	0.2206685846443297
5.054000000000022	0.7371287199691871	0.220642369184437
5.055000000000023	0.7373493541332534	0.2206253163896509
5.056000000000023	0.7375699755071405	0.2206167889918604
5.057000000000023	0.7377861174451461	0.2116664577944383
5.058000000000024	0.737994869364853	0.2058367740254064
5.059000000000024	0.7381978003196016	0.2000245449307998
5.060000000000024	0.7383952759576409	0.1949261565868425
5.061000000000025	0.7385878874083736	0.1902961845694784
5.062000000000025	0.7387716267659932	0.1771819962612859
5.063000000000025	0.7389440127532406	0.1675894769279095
5.064000000000026	0.7391069968009898	0.1583781446783837
5.065000000000026	0.7392612898077132	0.1502074202115022
5.066000000000026	0.7394077934611193	0.1427994607468855
5.067000000000027	0.739547254392799	0.1361219972833086
5.068000000000027	0.7396803613574893	0.1300915452834369
5.069000000000027	0.73980773060158	0.1246465728021744
5.070000000000028	0.739929918213716	0.1197282964705502
5.071000000000028	0.7400474248617021	0.11528465813964
5.072000000000028	0.7401607016501356	0.111268589688121
5.073000000000029	0.7402701549937643	0.1076377796682267
5.074000000000029	0.7403761511031444	0.1043541312626492
5.075000000000029	0.7404790199968538	0.1013833574374969
5.07600000000003	0.7405790591187275	0.09869459583514144
5.07700000000003	0.740676536591832	0.09626006736278785
5.07800000000003	0.7407716941474519	0.09405476762586534
5.079000000000031	0.7408647497610986	0.09205618954184523
5.080000000000031	0.7409559000249616	0.09024407361151335
5.081000000000031	0.7410453222831267	0.08860018318318717
5.082000000000032	0.7411331765532929	0.08710810218529504
5.083000000000032	0.7412196072563352	0.08575305308681615
5.084000000000032	0.7413047447729294	0.08452173306122365
5.085000000000033	0.7413887068445324	0.08340216653398291
5.086000000000033	0.7414715998342822	0.08238357247515733
5.087000000000033	0.741553519861826	0.08145624496264103
5.088000000000034	0.7416345538246828	0.08061144568895405
5.089000000000034	0.7417147803174871	0.07984130721724948
5.090000000000034	0.7417942704593263	0.07913874591161411
5.091000000000035	0.7418730886383613	0.07849738357423659
5.092000000000035	0.7419512931820019	0.07791147691875855
5.093000000000035	0.7420289369600823	0.07737585409619287
5.094000000000036	0.742106067927736	0.07688585756815415
5.095000000000036	0.7421827296139998	0.07643729269267202
5.096000000000037	0.7422589615615744	0.07602638145133044
5.097000000000037	0.7423347997226261	0.0756497208036018
5.098000000000037	0.7424102768150239	0.07530424520565764
5.099000000000038	0.7424854226429709	0.07498719287720922
5.100000000000038	0.7425602643855876	0.07469607544157626
5.101000000000038	0.7426348268566545	0.07442865060166175
5.102000000000039	0.7427091327383956	0.07418289754824309
5.103000000000039	0.7427832027919005	0.07395699482734883
5.104000000000039	0.7428570560465203	0.07374930042081317
5.10500000000004	0.7429307099703397	0.07355833381869094
5.10600000000004	0.7430041806236183	0.07338275988434792
